<svg width="48" height="48" viewBox="0 0 48 48" fill="none" xmlns="http://www.w3.org/2000/svg">
<path fill-rule="evenodd" clip-rule="evenodd" d="M27.3417 47.7692C39.0142 46.1426 48 36.122 48 24.0007V23.9993C48 10.7448 37.2548 0 24 0C10.7451 0 0 10.7448 0 23.9993C0 35.9451 8.72879 45.8538 20.1553 47.6932C21.4074 47.895 22.6912 48 24 48C25.1332 48 26.2499 47.9212 27.3417 47.7692ZM22.6486 40.69C22.5886 40.59 22.5586 40.44 22.5586 40.24C22.5586 40.02 22.5786 39.78 22.6186 39.52C22.6586 39.28 22.6786 39.02 22.6786 38.74C22.6786 37.86 22.3886 37.2 21.8086 36.76C21.2486 36.32 20.6086 36.1 19.8886 36.1C19.5086 36.1 19.1186 36.16 18.7186 36.28C18.3386 36.42 17.9986 36.62 17.6986 36.88C17.3986 37.16 17.1486 37.5 16.9486 37.9C16.7686 38.3 16.6786 38.77 16.6786 39.31C16.6786 39.93 16.8086 40.55 17.0686 41.17C17.3286 41.81 17.6986 42.38 18.1786 42.88C18.6786 43.4 19.2786 43.82 19.9786 44.14C20.6786 44.46 21.4686 44.62 22.3486 44.62C23.4886 44.62 24.5086 44.35 25.4086 43.81C26.3086 43.27 27.0986 42.58 27.7786 41.74C28.4786 40.9 29.0886 39.96 29.6086 38.92C30.1486 37.88 30.6186 36.86 31.0186 35.86C32.1186 33.18 32.8786 30.86 33.2986 28.9C33.7186 26.92 33.9186 25.33 33.8986 24.13C33.8986 23.61 33.7986 23.15 33.5986 22.75C33.4186 22.35 33.1786 22.01 32.8786 21.73C32.5786 21.45 32.2386 21.24 31.8586 21.1C31.4986 20.94 31.1286 20.86 30.7486 20.86C30.0486 20.86 29.4086 21.11 28.8286 21.61C28.2686 22.09 27.9486 22.87 27.8686 23.95C27.8086 24.71 27.7086 25.47 27.5686 26.23C27.4286 26.99 27.1786 27.67 26.8186 28.27C26.4786 28.87 25.9986 29.36 25.3786 29.74C24.7786 30.12 23.9986 30.31 23.0386 30.31C22.2186 30.31 21.5386 30.12 20.9986 29.74C20.4586 29.36 20.0186 28.88 19.6786 28.3C19.3586 27.72 19.1286 27.08 18.9886 26.38C18.8686 25.68 18.8086 25.01 18.8086 24.37C18.8086 23.53 18.8986 22.62 19.0786 21.64C19.2786 20.64 19.5486 19.65 19.8886 18.67C20.2286 17.67 20.6286 16.71 21.0886 15.79C21.5486 14.85 22.0486 14.03 22.5886 13.33C23.1486 12.61 23.7286 12.04 24.3286 11.62C24.9486 11.18 25.5686 10.96 26.1886 10.96C26.5886 10.96 26.8886 11.04 27.0886 11.2C27.2886 11.34 27.4386 11.51 27.5386 11.71C27.6386 11.91 27.6886 12.11 27.6886 12.31C27.7086 12.49 27.7186 12.61 27.7186 12.67C27.7186 13.13 27.6586 13.6 27.5386 14.08C27.4386 14.54 27.3186 15 27.1786 15.46L26.8186 16.84C26.7186 17.28 26.6686 17.72 26.6686 18.16C26.6686 19.06 26.8986 19.72 27.3586 20.14C27.8386 20.56 28.4386 20.77 29.1586 20.77C29.9586 20.77 30.6386 20.55 31.1986 20.11C31.7786 19.65 32.2486 19.09 32.6086 18.43C32.9886 17.75 33.2586 17.03 33.4186 16.27C33.5986 15.49 33.6886 14.77 33.6886 14.11C33.6886 13.09 33.4886 12.16 33.0886 11.32C32.7086 10.46 32.1786 9.73 31.4986 9.13C30.8386 8.53 30.0486 8.06 29.1286 7.72C28.2086 7.38 27.2186 7.21 26.1586 7.21C24.7986 7.21 23.5286 7.48 22.3486 8.02C21.1686 8.54 20.0786 9.25 19.0786 10.15C18.0986 11.05 17.2186 12.09 16.4386 13.27C15.6586 14.45 14.9986 15.7 14.4586 17.02C13.9186 18.32 13.5086 19.64 13.2286 20.98C12.9486 22.32 12.8086 23.59 12.8086 24.79C12.8086 26.17 12.9986 27.43 13.3786 28.57C13.7586 29.69 14.3086 30.66 15.0286 31.48C15.7686 32.28 16.6786 32.9 17.7586 33.34C18.8586 33.78 20.1286 34 21.5686 34C22.7086 34 23.7586 33.87 24.7186 33.61C25.6786 33.33 26.5386 32.95 27.2986 32.47C27.2386 32.83 27.1386 33.29 26.9986 33.85C26.8786 34.39 26.7286 34.97 26.5486 35.59C26.3686 36.23 26.1586 36.86 25.9186 37.48C25.6786 38.1 25.4086 38.66 25.1086 39.16C24.8286 39.68 24.5186 40.09 24.1786 40.39C23.8386 40.71 23.4786 40.87 23.0986 40.87C22.8786 40.87 22.7286 40.81 22.6486 40.69Z" fill="black"/>
</svg>
